<svg width="119" height="40" viewBox="0 0 119 40" fill="none" xmlns="http://www.w3.org/2000/svg">
<circle cx="20" cy="20" r="20" fill="white" fill-opacity="0.35"/>
<path d="M20 11V6" stroke="white" stroke-width="4" stroke-linecap="round"/>
<path d="M20 33V28" stroke="white" stroke-width="4" stroke-linecap="round"/>
<rect x="12" y="19" width="15" height="9" rx="4" stroke="white" stroke-width="4"/>
<path d="M26 11H16C13.7909 11 12 12.7909 12 15C12 17.2091 13.7909 19 16 19H20" stroke="white" stroke-width="4" stroke-linecap="round"/>
<path d="M59.56 12.016C59.976 12.224 60.216 12.552 60.28 13C60.36 13.448 60.248 13.856 59.944 14.224C59.736 14.512 59.464 14.672 59.128 14.704C58.808 14.736 58.48 14.672 58.144 14.512C57.76 14.336 57.352 14.2 56.92 14.104C56.504 14.008 56.064 13.96 55.6 13.96C54.736 13.96 53.96 14.096 53.272 14.368C52.6 14.64 52.024 15.032 51.544 15.544C51.064 16.04 50.696 16.632 50.44 17.32C50.2 18.008 50.08 18.768 50.08 19.6C50.08 20.576 50.216 21.424 50.488 22.144C50.776 22.864 51.168 23.464 51.664 23.944C52.16 24.424 52.744 24.784 53.416 25.024C54.088 25.248 54.816 25.36 55.6 25.36C56.032 25.36 56.464 25.32 56.896 25.24C57.328 25.16 57.744 25.016 58.144 24.808C58.48 24.648 58.808 24.592 59.128 24.64C59.464 24.688 59.744 24.856 59.968 25.144C60.288 25.544 60.4 25.96 60.304 26.392C60.224 26.808 59.984 27.112 59.584 27.304C59.168 27.512 58.736 27.688 58.288 27.832C57.856 27.96 57.416 28.056 56.968 28.12C56.52 28.2 56.064 28.24 55.6 28.24C54.448 28.24 53.352 28.056 52.312 27.688C51.288 27.32 50.368 26.776 49.552 26.056C48.752 25.336 48.12 24.44 47.656 23.368C47.192 22.28 46.96 21.024 46.96 19.6C46.96 18.368 47.168 17.232 47.584 16.192C48.016 15.152 48.616 14.256 49.384 13.504C50.168 12.736 51.088 12.144 52.144 11.728C53.2 11.296 54.352 11.08 55.6 11.08C56.304 11.08 56.992 11.16 57.664 11.32C58.336 11.48 58.968 11.712 59.56 12.016ZM72.1349 15.16C72.5509 15.16 72.8949 15.304 73.1669 15.592C73.4389 15.864 73.5749 16.208 73.5749 16.624V22.72C73.5749 24.416 73.1029 25.76 72.1589 26.752C71.2149 27.744 69.8549 28.24 68.0789 28.24C66.3029 28.24 64.9429 27.744 63.9989 26.752C63.0709 25.76 62.6069 24.416 62.6069 22.72V16.624C62.6069 16.208 62.7429 15.864 63.0149 15.592C63.2869 15.304 63.6309 15.16 64.0469 15.16C64.4629 15.16 64.8069 15.304 65.0789 15.592C65.3509 15.864 65.4869 16.208 65.4869 16.624V22.72C65.4869 23.696 65.7029 24.424 66.1349 24.904C66.5669 25.368 67.2149 25.6 68.0789 25.6C68.9589 25.6 69.6149 25.368 70.0469 24.904C70.4789 24.424 70.6949 23.696 70.6949 22.72V16.624C70.6949 16.208 70.8309 15.864 71.1029 15.592C71.3749 15.304 71.7189 15.16 72.1349 15.16ZM78.1328 28C77.7168 28 77.3728 27.864 77.1008 27.592C76.8288 27.304 76.6928 26.952 76.6928 26.536V16.624C76.6928 16.208 76.8288 15.864 77.1008 15.592C77.3728 15.304 77.7168 15.16 78.1328 15.16C78.5488 15.16 78.8928 15.304 79.1648 15.592C79.4368 15.864 79.5728 16.208 79.5728 16.624V18.88L79.4048 17.272C79.5808 16.888 79.8048 16.552 80.0768 16.264C80.3648 15.96 80.6848 15.712 81.0368 15.52C81.3888 15.312 81.7648 15.16 82.1648 15.064C82.5648 14.968 82.9648 14.92 83.3648 14.92C83.8448 14.92 84.2448 15.056 84.5648 15.328C84.9008 15.6 85.0688 15.92 85.0688 16.288C85.0688 16.816 84.9328 17.2 84.6608 17.44C84.3888 17.664 84.0928 17.776 83.7728 17.776C83.4688 17.776 83.1888 17.72 82.9328 17.608C82.6928 17.496 82.4128 17.44 82.0928 17.44C81.8048 17.44 81.5088 17.512 81.2048 17.656C80.9168 17.784 80.6448 17.992 80.3888 18.28C80.1488 18.568 79.9488 18.928 79.7888 19.36C79.6448 19.776 79.5728 20.272 79.5728 20.848V26.536C79.5728 26.952 79.4368 27.304 79.1648 27.592C78.8928 27.864 78.5488 28 78.1328 28ZM88.5391 28C88.1231 28 87.7791 27.864 87.5071 27.592C87.2351 27.304 87.0991 26.952 87.0991 26.536V16.624C87.0991 16.208 87.2351 15.864 87.5071 15.592C87.7791 15.304 88.1231 15.16 88.5391 15.16C88.9551 15.16 89.2991 15.304 89.5711 15.592C89.8431 15.864 89.9791 16.208 89.9791 16.624V18.88L89.8111 17.272C89.9871 16.888 90.2111 16.552 90.4831 16.264C90.7711 15.96 91.0911 15.712 91.4431 15.52C91.7951 15.312 92.1711 15.16 92.5711 15.064C92.9711 14.968 93.3711 14.92 93.7711 14.92C94.2511 14.92 94.6511 15.056 94.9711 15.328C95.3071 15.6 95.4751 15.92 95.4751 16.288C95.4751 16.816 95.3391 17.2 95.0671 17.44C94.7951 17.664 94.4991 17.776 94.1791 17.776C93.8751 17.776 93.5951 17.72 93.3391 17.608C93.0991 17.496 92.8191 17.44 92.4991 17.44C92.2111 17.44 91.9151 17.512 91.6111 17.656C91.3231 17.784 91.0511 17.992 90.7951 18.28C90.5551 18.568 90.3551 18.928 90.1951 19.36C90.0511 19.776 89.9791 20.272 89.9791 20.848V26.536C89.9791 26.952 89.8431 27.304 89.5711 27.592C89.2991 27.864 88.9551 28 88.5391 28ZM100.217 26.536C100.217 26.952 100.081 27.304 99.8093 27.592C99.5373 27.864 99.1933 28 98.7773 28C98.3613 28 98.0173 27.864 97.7453 27.592C97.4733 27.304 97.3373 26.952 97.3373 26.536V16.624C97.3373 16.208 97.4733 15.864 97.7453 15.592C98.0173 15.304 98.3613 15.16 98.7773 15.16C99.1933 15.16 99.5373 15.304 99.8093 15.592C100.081 15.864 100.217 16.208 100.217 16.624V26.536ZM98.7533 13.6C98.2093 13.6 97.8253 13.512 97.6013 13.336C97.3773 13.16 97.2653 12.848 97.2653 12.4V11.944C97.2653 11.48 97.3853 11.168 97.6253 11.008C97.8813 10.832 98.2653 10.744 98.7773 10.744C99.3373 10.744 99.7293 10.832 99.9533 11.008C100.177 11.184 100.289 11.496 100.289 11.944V12.4C100.289 12.864 100.169 13.184 99.9293 13.36C99.6893 13.52 99.2973 13.6 98.7533 13.6ZM115.633 21.592C115.633 22.904 115.337 24.064 114.745 25.072C114.169 26.064 113.385 26.84 112.393 27.4C111.417 27.96 110.321 28.24 109.105 28.24C107.889 28.24 106.785 27.96 105.793 27.4C104.817 26.84 104.033 26.064 103.441 25.072C102.865 24.064 102.577 22.904 102.577 21.592C102.577 20.28 102.865 19.128 103.441 18.136C104.033 17.128 104.817 16.344 105.793 15.784C106.785 15.208 107.889 14.92 109.105 14.92C110.321 14.92 111.417 15.208 112.393 15.784C113.385 16.344 114.169 17.128 114.745 18.136C115.337 19.128 115.633 20.28 115.633 21.592ZM112.753 21.592C112.753 20.776 112.585 20.072 112.249 19.48C111.929 18.872 111.489 18.4 110.929 18.064C110.385 17.728 109.777 17.56 109.105 17.56C108.433 17.56 107.817 17.728 107.257 18.064C106.713 18.4 106.273 18.872 105.937 19.48C105.617 20.072 105.457 20.776 105.457 21.592C105.457 22.392 105.617 23.096 105.937 23.704C106.273 24.296 106.713 24.76 107.257 25.096C107.817 25.432 108.433 25.6 109.105 25.6C109.777 25.6 110.385 25.432 110.929 25.096C111.489 24.76 111.929 24.296 112.249 23.704C112.585 23.096 112.753 22.392 112.753 21.592Z" fill="white"/>
</svg>
